<?xml version="1.0" encoding="utf-8"?>
<!-- Generator: Adobe Illustrator 16.0.0, SVG Export Plug-In . SVG Version: 6.00 Build 0)  -->
<!DOCTYPE svg PUBLIC "-//W3C//DTD SVG 1.1//EN" "http://www.w3.org/Graphics/SVG/1.1/DTD/svg11.dtd">
<svg version="1.1" xmlns="http://www.w3.org/2000/svg" xmlns:xlink="http://www.w3.org/1999/xlink" x="0px" y="0px" width="512px"
	 height="512px" viewBox="0 0 512 512" style="enable-background:new 0 0 512 512;" xml:space="preserve">
<g id="BG">
</g>
<g id="flash" style="display:none;">
	<path style="display:inline;fill-rule:evenodd;clip-rule:evenodd;" d="M197.3,397.7c-60-23.2-102.5-80.7-102.5-148
		c0-81.2,61.8-148.2,141.6-157.7l8.4-24.5c-97,5.7-173.9,85.1-173.9,182.2c0,78.1,49.8,144.8,119.8,170.8L197.3,397.7z M344.5,89.2
		l-8,22.7c48.2,27.5,80.7,78.8,80.7,137.7c0,87.8-72.2,159-161.2,159c-6.5,0-13-0.4-19.3-1.2l-12.6,22.1c10.4,1.8,21,2.7,31.9,2.7
		c102.3,0,185.2-81.7,185.2-182.6C441.2,180.4,402.1,120.2,344.5,89.2z M290.3,200l57.3-162h-78.2l-73,213h46.9l-54,222.9L326.8,200
		H290.3z"/>
</g>
<g id="calendar" style="display:none;">
	<g style="display:inline;">
		<path d="M351.5,121.3c15.1,0,27.5-12.1,27.5-26.9V67.4c0-14.9-12.4-26.9-27.5-26.9S324,52.6,324,67.4v26.9
			C324,109.3,336.4,121.3,351.5,121.3z"/>
		<path d="M433.2,94H406c0,30-24.4,53.9-54.5,53.9c-30.1,0-54.5-23.9-54.5-53.9h-81.8c0,30-24.4,53.9-54.5,53.9
			C130.5,147.9,106,124,106,94H78.8C56.2,94,38,112.5,38,134.8v296.3c0,22.3,18.2,39.9,40.8,39.9h354.5c22.6,0,40.8-17.6,40.8-39.9
			V134.8C474,112.5,455.8,94,433.2,94z M420,404.2c0,7.4-6.5,13.8-14,13.8H106c-7.5,0-14-6.4-14-13.8V215.6c0-7.4,6.5-13.6,14-13.6
			H406c7.5,0,14,6.2,14,13.6V404.2z"/>
		<path d="M160.5,121.3c15.1,0,27.5-12.1,27.5-26.9V67.4c0-14.9-12.4-26.9-27.5-26.9c-15.1,0-27.5,12.1-27.5,26.9v26.9
			C133,109.3,145.4,121.3,160.5,121.3z"/>
	</g>
</g>
<g id="monitor" style="display:none;">
	<path style="display:inline;fill-rule:evenodd;clip-rule:evenodd;" d="M446.3,39H65.7C50.7,39,38,50.7,38,65.7v299.1
		c0,15,12.7,27.2,27.7,27.2H229v27h-81.7c-15,0-27.3,12.3-27.3,27.3V474h272v-27.7c0-15-12.2-27.3-27.3-27.3H283v-27h163.3
		c15,0,26.7-12.2,26.7-27.2V65.7C473,50.7,461.3,39,446.3,39z M419,338H93V93h326V338z"/>
</g>
<g id="RMB">
	<g>
		<path d="M415.9,38L298.9,237.1h92.2v44H283.6v60.6h107.5v44.6H283.6v88.3h-55.3v-88.3H116.9v-44.6h111.4v-60.6H116.9v-44H212
			L96.1,38h62.3c54.2,98.9,87.1,161.6,98.7,188.1h1.1c3.9-10.9,14.8-32.9,32.4-66L357,38H415.9z"/>
	</g>
</g>
</svg>
